PathFileType	4	(X/Y/Z)	/Users/itak/Documents/Research/Walk-IL/dataset/trc/00469_00167.trc
DataRate	CameraRate	NumFrames	NumMarkers	Units	OrigDataRate	OrigDataStartFrame	OrigNumFrames
100.000000	100.000000	4	53	mm	100.000000	157	628
Frame#	Time	RPSI			LPSI			L3			STRN			T10			C7			CLAV			RBAK			LBAK			LSHO			LUPA			LAEL			LAOL			LWTS			LWPS			LFRA			LIFD			LHPS			LHTS			RSHO			RUPA			RAEL			RAOL			RWTS			RWPS			RFRA			RIFD			RHTS			RHPS			RBHD			LFHD			RFHD			LBHD			LHIP			RHIP			RASI			LASI			LKNE			LTHI			LANK			LTIP			LTOE			LMT1			LMT5			LHEE			RKNE			RTHI			RANK			RTIP			RTOE			RMT1			RMT5			RHEE			
		X1	Y1	Z1	X2	Y2	Z2	X3	Y3	Z3	X4	Y4	Z4	X5	Y5	Z5	X6	Y6	Z6	X7	Y7	Z7	X8	Y8	Z8	X9	Y9	Z9	X10	Y10	Z10	X11	Y11	Z11	X12	Y12	Z12	X13	Y13	Z13	X14	Y14	Z14	X15	Y15	Z15	X16	Y16	Z16	X17	Y17	Z17	X18	Y18	Z18	X19	Y19	Z19	X20	Y20	Z20	X21	Y21	Z21	X22	Y22	Z22	X23	Y23	Z23	X24	Y24	Z24	X25	Y25	Z25	X26	Y26	Z26	X27	Y27	Z27	X28	Y28	Z28	X29	Y29	Z29	X30	Y30	Z30	X31	Y31	Z31	X32	Y32	Z32	X33	Y33	Z33	X34	Y34	Z34	X35	Y35	Z35	X36	Y36	Z36	X37	Y37	Z37	X38	Y38	Z38	X39	Y39	Z39	X40	Y40	Z40	X41	Y41	Z41	X42	Y42	Z42	X43	Y43	Z43	X44	Y44	Z44	X45	Y45	Z45	X46	Y46	Z46	X47	Y47	Z47	X48	Y48	Z48	X49	Y49	Z49	X50	Y50	Z50	X51	Y51	Z51	X52	Y52	Z52	X53	Y53	Z53	

158	1.57	-1292.657348632812	955.8311767578125	-434.5082397460938	-1268.81591796875	959.9654541015625	-574.8626708984375	-1264.158813476562	1055.381958007812	-483.1655578613281	-984.6950073242188	1238.942504882812	-446.9371032714844	-1271.6171875	1180.986572265625	-481.4466857910156	-1194.99951171875	1444.64404296875	-452.8682250976562	-1014.365173339844	1353.300903320312	-450.7493286132812	-1272.722045898438	1326.09521484375	-370.0990295410156	-1219.88818359375	1400.971557617188	-556.3270263671875	-1109.552612304688	1417.56201171875	-623.9984741210938	-1115.898071289062	1304.28076171875	-726.8156127929688	-1102.715576171875	1091.541748046875	-771.389892578125	-1183.578491210938	1079.292358398438	-708.3592529296875	-1034.758544921875	885.093505859375	-746.4998779296875	-1084.0341796875	873.1553955078125	-801.6950073242188	-1087.9091796875	1004.237670898438	-788.0734252929688	-1030.323974609375	727.2154541015625	-763.8305053710938	-1078.746337890625	794.18505859375	-804.7291870117188	-1019.654235839844	801.9577026367188	-759.9557495117188	-1145.691162109375	1408.0615234375	-287.4253234863281	-1174.380981445312	1345.985595703125	-215.6244506835938	-1184.194213867188	1054.375122070312	-175.7367095947266	-1230.146728515625	1039.392456054688	-222.8432006835938	-1070.83642578125	854.4866333007812	-219.9716339111328	-1144.555297851562	834.2001953125	-172.2324371337891	-1180.442138671875	995.1434326171875	-169.7331390380859	-1066.730712890625	697.4794921875	-218.288330078125	-1056.140747070312	756.9705200195312	-214.0667114257812	-1126.57275390625	748.846435546875	-179.6423645019531	-1094.539794921875	1641.130249023438	-360.30029296875	-960.77880859375	1640.776000976562	-518.3236694335938	-958.89599609375	1642.943603515625	-387.8146667480469	-1112.710083007812	1644.412231445312	-536.8916625976562	-1115.296630859375	856.8462524414062	-671.5277709960938	-1200.928833007812	843.1503295898438	-282.5881042480469	-1088.050415039062	887.5320434570312	-324.2341003417969	-1034.6923828125	892.2762451171875	-575.6593627929688	-1089.986694335938	433.7602233886719	-648.6823120117188	-1065.744262695312	590.6600341796875	-662.0136108398438	-1267.88232421875	47.40989303588867	-683.122314453125	-1139.819580078125	288.0427856445312	-675.13916015625	-1047.3076171875	43.17922973632812	-586.3977661132812	-1124.474487304688	51.04945755004883	-568.1112670898438	-1113.931518554688	44.68101119995117	-681.1771240234375	-1319.666137695312	55.3842658996582	-624.7138061523438	-1145.451904296875	453.2512817382812	-322.8889465332031	-1150.423217773438	708.5819702148438	-273.3184509277344	-1271.105712890625	50.31084060668945	-333.8314819335938	-1163.998413085938	307.5970458984375	-319.2364196777344	-1056.727783203125	48.73947525024414	-378.8105773925781	-1119.77099609375	45.96212005615234	-417.4327087402344	-1138.971435546875	53.68113708496094	-311.4974060058594	-1336.985595703125	41.00531005859375	-378.3302612304688	
159	1.58	-1291.356567382812	955.8451538085938	-433.080322265625	-1268.038818359375	958.6962280273438	-573.59423828125	-1262.223999023438	1055.040771484375	-481.3908081054688	-982.4769287109375	1238.203735351562	-444.91796875	-1269.704833984375	1180.680419921875	-479.5471496582031	-1192.557006835938	1444.133544921875	-450.4416809082031	-1011.968566894531	1352.666748046875	-448.5184936523438	-1270.208740234375	1325.574340820312	-367.8274841308594	-1217.628173828125	1400.777587890625	-553.9755859375	-1107.256591796875	1417.492431640625	-621.548828125	-1113.794799804688	1304.563598632812	-724.6088256835938	-1100.884399414062	1091.965209960938	-769.8825073242188	-1181.6123046875	1079.564697265625	-706.73388671875	-1033.047485351562	885.435791015625	-745.7069091796875	-1082.379028320312	873.6470336914062	-800.8926391601562	-1086.156616210938	1004.725036621094	-786.8844604492188	-1028.560668945312	727.5923461914062	-763.4389038085938	-1077.163696289062	794.6722412109375	-804.0819702148438	-1018.6767578125	801.9747314453125	-759.5574951171875	-1143.216796875	1407.383666992188	-285.1130065917969	-1172.142822265625	1345.320068359375	-213.4158172607422	-1182.948486328125	1053.61376953125	-174.1966094970703	-1228.830810546875	1038.919311523438	-221.4741668701172	-1070.276000976562	853.3650512695312	-218.7775115966797	-1144.105346679688	833.2062377929688	-171.2356567382812	-1179.3876953125	994.349365234375	-168.3648834228516	-1066.85546875	696.2888793945312	-217.8218994140625	-1056.007690429688	755.722412109375	-213.3532104492188	-1126.490600585938	747.7803344726562	-179.0323028564453	-1092.030395507812	1640.6630859375	-357.9605407714844	-958.5103149414062	1640.07373046875	-516.1615600585938	-956.418701171875	1642.382568359375	-385.6673889160156	-1110.4267578125	1643.812866210938	-534.5465698242188	-1113.587768554688	855.232177734375	-670.1781616210938	-1199.206298828125	843.0592651367188	-281.6084289550781	-1086.334838867188	887.235107421875	-323.1678161621094	-1033.817138671875	891.875	-574.4012451171875	-1078.469970703125	433.0907287597656	-647.15771484375	-1056.566772460938	590.400146484375	-659.4762573242188	-1267.092407226562	50.95718765258789	-682.154296875	-1132.778442382812	288.3359985351562	-674.3903198242188	-1046.615356445312	42.74928665161133	-586.6815185546875	-1123.35693359375	51.47008895874023	-568.1727294921875	-1113.722778320312	44.60272216796875	-681.0552368164062	-1318.1787109375	60.41109848022461	-623.3795776367188	-1144.745727539062	452.9763793945312	-322.3185729980469	-1148.808471679688	708.3726806640625	-272.4193115234375	-1271.240844726562	50.17274475097656	-333.6865539550781	-1163.5703125	307.1689453125	-318.9116821289062	-1056.937866210938	48.78196716308594	-378.8978271484375	-1119.941040039062	45.90433120727539	-417.5518493652344	-1139.052490234375	53.64825820922852	-311.5517578125	-1337.127197265625	40.77610778808594	-378.1979370117188	
160	1.59	-1290.100830078125	955.6961059570312	-431.5791015625	-1267.380493164062	957.1701049804688	-572.2730712890625	-1260.350341796875	1054.677856445312	-479.5408020019531	-980.12255859375	1237.328247070312	-443.028564453125	-1267.720825195312	1180.312133789062	-477.6270446777344	-1189.989501953125	1443.580078125	-448.0551147460938	-1009.437377929688	1351.903076171875	-446.4188537597656	-1267.568603515625	1325.006591796875	-365.5454711914062	-1215.292724609375	1400.519653320312	-551.6563720703125	-1104.900268554688	1417.3291015625	-619.2028198242188	-1111.692260742188	1304.720336914062	-722.4877319335938	-1099.081420898438	1092.255859375	-768.4498901367188	-1179.628540039062	1079.697631835938	-705.1588134765625	-1031.265747070312	885.6732788085938	-744.960205078125	-1080.7109375	874.025390625	-800.0994873046875	-1084.400756835938	1005.085021972656	-785.7589721679688	-1026.626098632812	727.9076538085938	-763.078857421875	-1075.541137695312	795.047607421875	-803.40771484375	-1017.469665527344	801.9468994140625	-759.1748657226562	-1140.52392578125	1406.586791992188	-282.8576354980469	-1169.633178710938	1344.537231445312	-211.2654418945312	-1181.578002929688	1052.76171875	-172.6077575683594	-1227.377075195312	1038.364379882812	-220.0765838623047	-1069.66552734375	852.1085205078125	-217.5040435791016	-1143.628173828125	832.1285400390625	-170.1375427246094	-1178.244018554688	993.4730834960938	-166.9160614013672	-1067.018188476562	694.973388671875	-217.2035675048828	-1055.884765625	754.3370971679688	-212.5238647460938	-1126.422485351562	746.6116333007812	-178.3048553466797	-1089.479248046875	1640.130004882812	-355.6286926269531	-956.209228515625	1639.405151367188	-514.0031127929688	-953.8995971679688	1641.8359375	-383.5192565917969	-1108.099365234375	1643.161499023438	-532.2109375	-1111.912109375	853.6848754882812	-668.9195556640625	-1197.358642578125	842.8661499023438	-280.572265625	-1084.454833984375	886.8623046875	-322.1920471191406	-1033.03955078125	891.4189453125	-573.2400512695312	-1066.475219726562	432.9543762207031	-645.7146606445312	-1046.928588867188	590.5982055664062	-656.9623413085938	-1266.015380859375	55.55165100097656	-681.1224365234375	-1125.269287109375	289.3378295898438	-673.5996704101562	-1045.93701171875	42.37907028198242	-587.0482788085938	-1122.036254882812	52.06452560424805	-568.1973266601562	-1113.457153320312	44.75451278686523	-680.8152465820312	-1316.272583007812	66.76136016845703	-621.95361328125	-1143.888671875	452.6405334472656	-321.7442321777344	-1147.044311523438	708.0894775390625	-271.5045166015625	-1271.360717773438	50.06158065795898	-333.5632934570312	-1163.075561523438	306.7218322753906	-318.5904541015625	-1057.113647460938	48.8062858581543	-378.961181640625	-1120.071899414062	45.84651184082031	-417.6487731933594	-1139.11376953125	53.59873580932617	-311.5862731933594	-1337.239135742188	40.58301544189453	-378.104736328125	
161	1.6	-1288.86181640625	955.369873046875	-430.013671875	-1266.782104492188	955.4661865234375	-570.8971557617188	-1258.5732421875	1054.343872070312	-477.6205749511719	-977.61669921875	1236.342407226562	-441.2882385253906	-1265.646606445312	1179.919921875	-475.6894836425781	-1187.283813476562	1443.01611328125	-445.7317504882812	-1006.775329589844	1351.03076171875	-444.4767150878906	-1264.816162109375	1324.433227539062	-363.282958984375	-1212.872680664062	1400.22216796875	-549.390380859375	-1102.477416992188	1417.071655273438	-616.9927368164062	-1109.58349609375	1304.731811523438	-720.4728393554688	-1097.293823242188	1092.40185546875	-767.1024169921875	-1177.625122070312	1079.682739257812	-703.6551513671875	-1029.4013671875	885.7903442382812	-744.2581787109375	-1079.019287109375	874.2811889648438	-799.3179931640625	-1082.6328125	1005.299438476562	-784.696044921875	-1024.574462890625	728.1270141601562	-762.7496948242188	-1073.876220703125	795.3013305664062	-802.7178344726562	-1015.997314453125	801.8861694335938	-758.7926025390625	-1137.599609375	1405.677124023438	-280.6744384765625	-1166.832641601562	1343.630249023438	-209.1897430419922	-1180.033935546875	1051.820434570312	-170.9773254394531	-1225.757690429688	1037.7333984375	-218.6363067626953	-1069.006469726562	850.7061157226562	-216.1638946533203	-1143.110961914062	830.973876953125	-168.9334869384766	-1176.972900390625	992.5183715820312	-165.3870697021484	-1067.2119140625	693.533203125	-216.4060363769531	-1055.7646484375	752.8140869140625	-211.5647430419922	-1126.36181640625	745.3495483398438	-177.4265594482422	-1086.867797851562	1639.551513671875	-353.3248291015625	-953.841064453125	1638.793701171875	-511.8646240234375	-951.3212890625	1641.317626953125	-381.3856201171875	-1105.703491210938	1642.478393554688	-529.905517578125	-1110.2265625	852.3359375	-667.759033203125	-1195.4072265625	842.5612182617188	-279.4754943847656	-1082.43212890625	886.4225463867188	-321.2794799804688	-1032.3203125	890.9743041992188	-572.1509399414062	-1054.099853515625	433.4332580566406	-644.3146362304688	-1036.98046875	591.3578491210938	-654.5481567382812	-1264.550048828125	61.19283294677734	-680.0489501953125	-1117.282958984375	291.0644226074219	-672.722900390625	-1045.236206054688	42.09325790405273	-587.4905395507812	-1120.4921875	52.85030364990234	-568.1588745117188	-1113.061157226562	45.22378921508789	-680.4605712890625	-1313.861083984375	74.35098266601562	-620.4735717773438	-1142.913330078125	452.2481384277344	-321.1734008789062	-1145.167358398438	707.731689453125	-270.5812072753906	-1271.464233398438	49.97711563110352	-333.4633483886719	-1162.530517578125	306.2659606933594	-318.2701110839844	-1057.255004882812	48.81559371948242	-378.999267578125	-1120.1640625	45.79024887084961	-417.7198181152344	-1139.15771484375	53.53645324707031	-311.5987548828125	-1337.32373046875	40.43094253540039	-378.0484008789062	
